IKResults
version=1
nRows=4
nColumns=63
inDegrees=yes

Units are S.I. units (second, meters, Newtons, ...)
If the header above contains a line with 'inDegrees', this indicates whether rotational values are in degrees (yes) or radians (no).

endheader
time	pelvis_tilt	pelvis_list	pelvis_rotation	pelvis_tx	pelvis_ty	pelvis_tz	hip_flexion_r	hip_adduction_r	hip_rotation_r	knee_angle_r	knee_angle_r_beta	ankle_angle_r	subtalar_angle_r	mtp_angle_r	hip_flexion_l	hip_adduction_l	hip_rotation_l	knee_angle_l	knee_angle_l_beta	ankle_angle_l	subtalar_angle_l	mtp_angle_l	L5_S1_Flex_Ext	L5_S1_Lat_Bending	L5_S1_axial_rotation	L4_L5_Flex_Ext	L4_L5_Lat_Bending	L4_L5_axial_rotation	L3_L4_Flex_Ext	L3_L4_Lat_Bending	L3_L4_axial_rotation	L2_L3_Flex_Ext	L2_L3_Lat_Bending	L2_L3_axial_rotation	L1_L2_Flex_Ext	L1_L2_Lat_Bending	L1_L2_axial_rotation	L1_T12_Flex_Ext	L1_T12_Lat_Bending	L1_T12_axial_rotation	Abs_r3	Abs_r2	Abs_r1	Abs_t1	Abs_t2	neck_flexion	neck_bending	neck_rotation	arm_flex_r	arm_add_r	arm_rot_r	elbow_flex_r	pro_sup_r	wrist_flex_r	wrist_dev_r	arm_flex_l	arm_add_l	arm_rot_l	elbow_flex_l	pro_sup_l	wrist_flex_l	wrist_dev_l
      4.03333333	     75.69275292	    -75.10047748	     34.40053837	     -0.68572481	      0.33276670	     -0.46215584	     -8.83316926	      5.42826653	     29.71086520	     31.55112719	      0.55067105	    -23.67180813	     -3.41660752	      0.00000000	     34.96568156	    -24.10742954	    -15.55607936	     51.18813792	      0.89340154	     -6.83720784	    -19.79553300	      0.00000000	     -3.84125444	     -0.98584660	      9.78654753	     -7.13359362	     -1.31117598	     10.39820675	     -6.31079692	     -2.39698743	     10.39820675	     -4.39016970	     -2.39698743	      8.56322909	     -3.56698887	     -2.01033839	      7.95156987	     -2.19489279	     -1.52707639	      7.33991065	    -27.43769634	    -11.15209394	     54.42984140	      0.00000000	      0.00000000	     28.45341200	      0.49762526	     44.52093805	     53.40786509	     13.02536276	     59.25115318	     12.61413492	     89.99559364	      0.00000000	      0.00000000	    154.42026011	     22.00416335	    -66.28603680	     33.29911866	     89.99559364	      0.00000000	      0.00000000
      4.06666667	     83.43341940	    -75.11323904	     40.97427116	     -0.68713824	      0.33140819	     -0.46458917	    -10.60212705	      6.55434398	     31.44384877	     31.03282039	      0.54162489	    -24.26634101	     -4.21089898	      0.00000000	     33.71950836	    -25.76696350	    -15.46178580	     51.71695438	      0.90263113	     -7.45411714	    -19.80451102	      0.00000000	     -4.02810326	     -0.75792115	     10.19201839	     -7.48059057	     -1.00803513	     10.82901954	     -6.61777085	     -1.84280949	     10.82901954	     -4.60371922	     -1.84280949	      8.91801609	     -3.74049669	     -1.54555281	      8.28101494	     -2.30165821	     -1.17401986	      7.64401380	    -28.77233881	     -8.57375565	     56.68494870	      0.00000000	      0.00000000	     28.44369613	     -1.67454332	     44.52697221	     53.30934772	     11.48740219	     58.90783972	     12.73974154	     89.99559364	      0.00000000	      0.00000000	    152.91253385	     22.24187965	    -64.09466877	     36.04434855	     89.99559364	      0.00000000	      0.00000000
      4.10000000	     83.71318953	    -75.14716358	     41.20681557	     -0.68732102	      0.33114235	     -0.46524013	    -10.68469551	      6.65570503	     31.73845398	     30.83216831	      0.53812285	    -24.28781195	     -4.58455254	      0.00000000	     33.84737583	    -25.86637514	    -15.43817251	     51.67814071	      0.90195371	     -8.42370276	    -19.81167433	      0.00000000	     -4.05988379	     -0.73794119	     10.34578739	     -7.53961019	     -0.98146179	     10.99239911	     -6.66998308	     -1.79423021	     10.99239911	     -4.64004118	     -1.79423021	      9.05256397	     -3.77000809	     -1.50480968	      8.40595226	     -2.31981760	     -1.14307091	      7.75934055	    -28.99934393	     -8.34773835	     57.54016575	      0.00000000	      0.00000000	     28.44159435	     -2.50322333	     44.52639335	     53.34770976	     10.96178424	     58.86880173	     12.64560652	     89.99559364	      0.00000000	      0.00000000	    152.40081529	     22.75320226	    -63.62558631	     37.26098526	     89.99559364	      0.00000000	      0.00000000
      4.13333333	     84.18441716	    -75.10252670	     41.68245961	     -0.68752995	      0.33064464	     -0.46594602	    -10.82579786	      6.70559693	     31.83676926	     30.69021787	      0.53564535	    -24.27478034	     -4.84116579	      0.00000000	     33.86258115	    -25.96067209	    -15.63134240	     51.62186979	      0.90097159	     -9.27032355	    -19.81519568	      0.00000000	     -4.09995067	     -0.71506228	     10.46773395	     -7.61401838	     -0.95103283	     11.12196732	     -6.73580895	     -1.73860242	     11.12196732	     -4.68583362	     -1.73860242	      9.15926720	     -3.80721419	     -1.45815499	      8.50503383	     -2.34271181	     -1.10763146	      7.85080046	    -29.28553761	     -8.08892747	     58.21839589	      0.00000000	      0.00000000	     28.43782394	     -3.23218195	     44.52188219	     53.39318705	     10.34659403	     58.82372433	     12.64165969	     89.99559364	      0.00000000	      0.00000000	    151.94516209	     23.11468178	    -62.92786335	     37.98831902	     89.99559364	      0.00000000	      0.00000000
